<mxfile host="app.diagrams.net" modified="2023-12-15T18:10:30.090Z" agent="Mozilla/5.0 (Windows NT 10.0; Win64; x64) AppleWebKit/537.36 (KHTML, like Gecko) Chrome/120.0.0.0 Safari/537.36" etag="RAPZrh8WQ_Wjgvv5aYAd" version="22.1.9" type="device">
  <diagram id="tgg4SNjWzi3UejfEpTgV" name="PÃ¡gina-1">
    <mxGraphModel dx="1050" dy="956" grid="0" gridSize="10" guides="1" tooltips="1" connect="1" arrows="1" fold="1" page="0" pageScale="1" pageWidth="827" pageHeight="1169" math="0" shadow="0">
      <root>
        <mxCell id="0" />
        <mxCell id="1" parent="0" />
        <mxCell id="XoC2ayWK2RqXfS1PPcWr-1" value="&lt;b&gt;conducemas3&lt;/b&gt;" style="text;html=1;strokeColor=none;fillColor=none;align=center;verticalAlign=middle;whiteSpace=wrap;rounded=0;fontSize=16;" parent="1" vertex="1">
          <mxGeometry x="615" y="-338" width="60" height="30" as="geometry" />
        </mxCell>
        <mxCell id="XoC2ayWK2RqXfS1PPcWr-2" value="&lt;b&gt;2_3anios&lt;/b&gt;" style="text;html=1;strokeColor=none;fillColor=none;align=center;verticalAlign=middle;whiteSpace=wrap;rounded=0;fontSize=16;" parent="1" vertex="1">
          <mxGeometry x="159" y="-338" width="60" height="30" as="geometry" />
        </mxCell>
        <mxCell id="XoC2ayWK2RqXfS1PPcWr-3" value="&lt;b&gt;conduce2_3&lt;/b&gt;" style="text;html=1;strokeColor=none;fillColor=none;align=center;verticalAlign=middle;whiteSpace=wrap;rounded=0;fontSize=16;" parent="1" vertex="1">
          <mxGeometry x="463.5" y="-338" width="60" height="30" as="geometry" />
        </mxCell>
        <mxCell id="XoC2ayWK2RqXfS1PPcWr-4" value="&lt;b&gt;cansado&lt;/b&gt;" style="text;html=1;strokeColor=none;fillColor=none;align=center;verticalAlign=middle;whiteSpace=wrap;rounded=0;fontSize=16;" parent="1" vertex="1">
          <mxGeometry x="541.5" y="-179" width="60" height="30" as="geometry" />
        </mxCell>
        <mxCell id="XoC2ayWK2RqXfS1PPcWr-5" value="&lt;b&gt;acompaniado&lt;/b&gt;" style="text;html=1;strokeColor=none;fillColor=none;align=center;verticalAlign=middle;whiteSpace=wrap;rounded=0;fontSize=16;" parent="1" vertex="1">
          <mxGeometry x="117.5" y="-177" width="60" height="30" as="geometry" />
        </mxCell>
        <mxCell id="XoC2ayWK2RqXfS1PPcWr-6" value="&lt;b&gt;experimentado&lt;/b&gt;" style="text;html=1;strokeColor=none;fillColor=none;align=center;verticalAlign=middle;whiteSpace=wrap;rounded=0;fontSize=16;" parent="1" vertex="1">
          <mxGeometry x="259" y="-177" width="60" height="30" as="geometry" />
        </mxCell>
        <mxCell id="XoC2ayWK2RqXfS1PPcWr-7" value="&lt;b&gt;mas3anios&lt;/b&gt;" style="text;html=1;strokeColor=none;fillColor=none;align=center;verticalAlign=middle;whiteSpace=wrap;rounded=0;fontSize=16;" parent="1" vertex="1">
          <mxGeometry x="304" y="-338" width="60" height="30" as="geometry" />
        </mxCell>
        <mxCell id="XoC2ayWK2RqXfS1PPcWr-8" value="&lt;b&gt;accidente&lt;/b&gt;" style="text;html=1;strokeColor=none;fillColor=none;align=center;verticalAlign=middle;whiteSpace=wrap;rounded=0;fontSize=16;" parent="1" vertex="1">
          <mxGeometry x="409" y="10" width="60" height="30" as="geometry" />
        </mxCell>
        <mxCell id="XoC2ayWK2RqXfS1PPcWr-9" value="&lt;b&gt;bebe&lt;/b&gt;" style="text;html=1;strokeColor=none;fillColor=none;align=center;verticalAlign=middle;whiteSpace=wrap;rounded=0;fontSize=16;" parent="1" vertex="1">
          <mxGeometry x="725" y="-177" width="60" height="30" as="geometry" />
        </mxCell>
        <mxCell id="XoC2ayWK2RqXfS1PPcWr-10" value="&lt;b&gt;joven&lt;/b&gt;" style="text;html=1;strokeColor=none;fillColor=none;align=center;verticalAlign=middle;whiteSpace=wrap;rounded=0;fontSize=16;" parent="1" vertex="1">
          <mxGeometry x="819" y="-175" width="60" height="30" as="geometry" />
        </mxCell>
        <mxCell id="XoC2ayWK2RqXfS1PPcWr-37" style="edgeStyle=none;curved=1;rounded=0;orthogonalLoop=1;jettySize=auto;html=1;exitX=0.5;exitY=1;exitDx=0;exitDy=0;entryX=0.25;entryY=0;entryDx=0;entryDy=0;fontSize=12;startSize=8;endSize=8;" parent="1" source="XoC2ayWK2RqXfS1PPcWr-11" target="XoC2ayWK2RqXfS1PPcWr-8" edge="1">
          <mxGeometry relative="1" as="geometry" />
        </mxCell>
        <mxCell id="XoC2ayWK2RqXfS1PPcWr-11" value="R&lt;span style=&quot;font-size: 13.3333px;&quot;&gt;5&lt;/span&gt;" style="rounded=1;whiteSpace=wrap;html=1;fontSize=16;" parent="1" vertex="1">
          <mxGeometry x="180" y="-91" width="39" height="29" as="geometry" />
        </mxCell>
        <mxCell id="XoC2ayWK2RqXfS1PPcWr-34" style="edgeStyle=none;curved=1;rounded=0;orthogonalLoop=1;jettySize=auto;html=1;exitX=0.5;exitY=1;exitDx=0;exitDy=0;entryX=0.5;entryY=0;entryDx=0;entryDy=0;fontSize=12;startSize=8;endSize=8;" parent="1" source="XoC2ayWK2RqXfS1PPcWr-12" target="XoC2ayWK2RqXfS1PPcWr-6" edge="1">
          <mxGeometry relative="1" as="geometry" />
        </mxCell>
        <mxCell id="XoC2ayWK2RqXfS1PPcWr-12" value="R&lt;span style=&quot;font-size: 13.3333px;&quot;&gt;2&lt;/span&gt;" style="rounded=1;whiteSpace=wrap;html=1;fontSize=16;" parent="1" vertex="1">
          <mxGeometry x="314.5" y="-271" width="39" height="29" as="geometry" />
        </mxCell>
        <mxCell id="XoC2ayWK2RqXfS1PPcWr-36" style="edgeStyle=none;curved=1;rounded=0;orthogonalLoop=1;jettySize=auto;html=1;exitX=0.5;exitY=1;exitDx=0;exitDy=0;entryX=0.75;entryY=0;entryDx=0;entryDy=0;fontSize=12;startSize=8;endSize=8;" parent="1" source="XoC2ayWK2RqXfS1PPcWr-14" target="XoC2ayWK2RqXfS1PPcWr-4" edge="1">
          <mxGeometry relative="1" as="geometry" />
        </mxCell>
        <mxCell id="XoC2ayWK2RqXfS1PPcWr-14" value="R&lt;span style=&quot;font-size: 13.3333px;&quot;&gt;4&lt;/span&gt;" style="rounded=1;whiteSpace=wrap;html=1;fontSize=16;" parent="1" vertex="1">
          <mxGeometry x="625.5" y="-263" width="39" height="29" as="geometry" />
        </mxCell>
        <mxCell id="XoC2ayWK2RqXfS1PPcWr-15" value="R&lt;span style=&quot;font-size: 13.3333px;&quot;&gt;6&lt;/span&gt;" style="rounded=1;whiteSpace=wrap;html=1;fontSize=16;" parent="1" vertex="1">
          <mxGeometry x="516" y="-91" width="39" height="29" as="geometry" />
        </mxCell>
        <mxCell id="XoC2ayWK2RqXfS1PPcWr-38" style="edgeStyle=none;curved=1;rounded=0;orthogonalLoop=1;jettySize=auto;html=1;exitX=0.5;exitY=1;exitDx=0;exitDy=0;entryX=1;entryY=0;entryDx=0;entryDy=0;fontSize=12;startSize=8;endSize=8;" parent="1" source="XoC2ayWK2RqXfS1PPcWr-16" target="XoC2ayWK2RqXfS1PPcWr-8" edge="1">
          <mxGeometry relative="1" as="geometry" />
        </mxCell>
        <mxCell id="XoC2ayWK2RqXfS1PPcWr-16" value="R&lt;span style=&quot;font-size: 13.3333px;&quot;&gt;7&lt;/span&gt;" style="rounded=1;whiteSpace=wrap;html=1;fontSize=16;" parent="1" vertex="1">
          <mxGeometry x="780" y="-91" width="39" height="29" as="geometry" />
        </mxCell>
        <mxCell id="XoC2ayWK2RqXfS1PPcWr-33" style="edgeStyle=none;curved=1;rounded=0;orthogonalLoop=1;jettySize=auto;html=1;exitX=0.5;exitY=1;exitDx=0;exitDy=0;entryX=0.25;entryY=0;entryDx=0;entryDy=0;fontSize=12;startSize=8;endSize=8;" parent="1" source="XoC2ayWK2RqXfS1PPcWr-17" target="XoC2ayWK2RqXfS1PPcWr-6" edge="1">
          <mxGeometry relative="1" as="geometry" />
        </mxCell>
        <mxCell id="XoC2ayWK2RqXfS1PPcWr-17" value="R&lt;span style=&quot;font-size: 13.3333px;&quot;&gt;1&lt;/span&gt;" style="rounded=1;whiteSpace=wrap;html=1;fontSize=16;" parent="1" vertex="1">
          <mxGeometry x="169.5" y="-271" width="39" height="29" as="geometry" />
        </mxCell>
        <mxCell id="XoC2ayWK2RqXfS1PPcWr-35" style="edgeStyle=none;curved=1;rounded=0;orthogonalLoop=1;jettySize=auto;html=1;exitX=0.5;exitY=1;exitDx=0;exitDy=0;entryX=0.25;entryY=0;entryDx=0;entryDy=0;fontSize=12;startSize=8;endSize=8;" parent="1" source="XoC2ayWK2RqXfS1PPcWr-18" target="XoC2ayWK2RqXfS1PPcWr-4" edge="1">
          <mxGeometry relative="1" as="geometry" />
        </mxCell>
        <mxCell id="XoC2ayWK2RqXfS1PPcWr-18" value="R&lt;span style=&quot;font-size: 13.3333px;&quot;&gt;3&lt;/span&gt;" style="rounded=1;whiteSpace=wrap;html=1;fontSize=16;" parent="1" vertex="1">
          <mxGeometry x="474" y="-263" width="39" height="29" as="geometry" />
        </mxCell>
        <mxCell id="XoC2ayWK2RqXfS1PPcWr-19" value="" style="endArrow=none;html=1;rounded=0;fontSize=12;startSize=8;endSize=8;edgeStyle=none;curved=1;entryX=0.5;entryY=1;entryDx=0;entryDy=0;exitX=0.5;exitY=0;exitDx=0;exitDy=0;" parent="1" source="XoC2ayWK2RqXfS1PPcWr-15" target="XoC2ayWK2RqXfS1PPcWr-4" edge="1">
          <mxGeometry width="50" height="50" relative="1" as="geometry">
            <mxPoint x="559" y="-46" as="sourcePoint" />
            <mxPoint x="609" y="-96" as="targetPoint" />
          </mxGeometry>
        </mxCell>
        <mxCell id="XoC2ayWK2RqXfS1PPcWr-20" value="" style="endArrow=none;html=1;rounded=0;fontSize=12;startSize=8;endSize=8;edgeStyle=none;curved=1;entryX=0.5;entryY=1;entryDx=0;entryDy=0;exitX=0.5;exitY=0;exitDx=0;exitDy=0;" parent="1" source="XoC2ayWK2RqXfS1PPcWr-17" target="XoC2ayWK2RqXfS1PPcWr-2" edge="1">
          <mxGeometry width="50" height="50" relative="1" as="geometry">
            <mxPoint x="186" y="-271" as="sourcePoint" />
            <mxPoint x="236" y="-321" as="targetPoint" />
          </mxGeometry>
        </mxCell>
        <mxCell id="XoC2ayWK2RqXfS1PPcWr-21" value="" style="endArrow=none;html=1;rounded=0;fontSize=12;startSize=8;endSize=8;edgeStyle=none;curved=1;entryX=0.5;entryY=1;entryDx=0;entryDy=0;exitX=0.5;exitY=0;exitDx=0;exitDy=0;" parent="1" source="XoC2ayWK2RqXfS1PPcWr-12" target="XoC2ayWK2RqXfS1PPcWr-7" edge="1">
          <mxGeometry width="50" height="50" relative="1" as="geometry">
            <mxPoint x="264" y="-242" as="sourcePoint" />
            <mxPoint x="314" y="-292" as="targetPoint" />
          </mxGeometry>
        </mxCell>
        <mxCell id="XoC2ayWK2RqXfS1PPcWr-23" value="" style="endArrow=none;html=1;rounded=0;fontSize=12;startSize=8;endSize=8;edgeStyle=none;curved=1;entryX=0.5;entryY=1;entryDx=0;entryDy=0;exitX=0.5;exitY=0;exitDx=0;exitDy=0;" parent="1" source="XoC2ayWK2RqXfS1PPcWr-18" target="XoC2ayWK2RqXfS1PPcWr-3" edge="1">
          <mxGeometry width="50" height="50" relative="1" as="geometry">
            <mxPoint x="519" y="-248" as="sourcePoint" />
            <mxPoint x="569" y="-298" as="targetPoint" />
          </mxGeometry>
        </mxCell>
        <mxCell id="XoC2ayWK2RqXfS1PPcWr-24" value="" style="endArrow=none;html=1;rounded=0;fontSize=12;startSize=8;endSize=8;edgeStyle=none;curved=1;entryX=0.5;entryY=1;entryDx=0;entryDy=0;exitX=0.5;exitY=0;exitDx=0;exitDy=0;" parent="1" source="XoC2ayWK2RqXfS1PPcWr-14" target="XoC2ayWK2RqXfS1PPcWr-1" edge="1">
          <mxGeometry width="50" height="50" relative="1" as="geometry">
            <mxPoint x="565" y="-231.5" as="sourcePoint" />
            <mxPoint x="615" y="-281.5" as="targetPoint" />
          </mxGeometry>
        </mxCell>
        <mxCell id="XoC2ayWK2RqXfS1PPcWr-25" value="" style="endArrow=none;html=1;rounded=0;fontSize=12;startSize=8;endSize=8;edgeStyle=none;curved=1;entryX=0.25;entryY=1;entryDx=0;entryDy=0;" parent="1" target="XoC2ayWK2RqXfS1PPcWr-5" edge="1">
          <mxGeometry width="50" height="50" relative="1" as="geometry">
            <mxPoint x="200" y="-90" as="sourcePoint" />
            <mxPoint x="74" y="-131" as="targetPoint" />
          </mxGeometry>
        </mxCell>
        <mxCell id="XoC2ayWK2RqXfS1PPcWr-26" value="" style="endArrow=none;html=1;rounded=0;fontSize=12;edgeStyle=none;curved=1;entryX=0.25;entryY=1;entryDx=0;entryDy=0;entryPerimeter=0;exitX=0.5;exitY=0;exitDx=0;exitDy=0;" parent="1" source="XoC2ayWK2RqXfS1PPcWr-11" target="XoC2ayWK2RqXfS1PPcWr-6" edge="1">
          <mxGeometry width="50" height="50" relative="1" as="geometry">
            <mxPoint x="209" y="-91" as="sourcePoint" />
            <mxPoint x="279" y="-147" as="targetPoint" />
          </mxGeometry>
        </mxCell>
        <mxCell id="XoC2ayWK2RqXfS1PPcWr-29" value="" style="endArrow=none;html=1;rounded=0;fontSize=12;startSize=8;endSize=8;edgeStyle=none;curved=1;entryX=0.5;entryY=1;entryDx=0;entryDy=0;exitX=0.25;exitY=0;exitDx=0;exitDy=0;" parent="1" source="XoC2ayWK2RqXfS1PPcWr-16" target="XoC2ayWK2RqXfS1PPcWr-9" edge="1">
          <mxGeometry width="50" height="50" relative="1" as="geometry">
            <mxPoint x="649" y="44" as="sourcePoint" />
            <mxPoint x="699" y="-6" as="targetPoint" />
          </mxGeometry>
        </mxCell>
        <mxCell id="XoC2ayWK2RqXfS1PPcWr-30" value="" style="endArrow=none;html=1;rounded=0;fontSize=12;startSize=8;endSize=8;edgeStyle=none;curved=1;entryX=0.5;entryY=1;entryDx=0;entryDy=0;exitX=0.75;exitY=0;exitDx=0;exitDy=0;" parent="1" source="XoC2ayWK2RqXfS1PPcWr-16" target="XoC2ayWK2RqXfS1PPcWr-10" edge="1">
          <mxGeometry width="50" height="50" relative="1" as="geometry">
            <mxPoint x="812" y="-92" as="sourcePoint" />
            <mxPoint x="709" y="4" as="targetPoint" />
          </mxGeometry>
        </mxCell>
        <mxCell id="XoC2ayWK2RqXfS1PPcWr-32" value="" style="endArrow=classic;html=1;rounded=0;fontSize=12;startSize=8;endSize=8;edgeStyle=none;curved=1;exitX=0.5;exitY=1;exitDx=0;exitDy=0;entryX=0.5;entryY=0;entryDx=0;entryDy=0;" parent="1" source="XoC2ayWK2RqXfS1PPcWr-15" target="XoC2ayWK2RqXfS1PPcWr-8" edge="1">
          <mxGeometry width="50" height="50" relative="1" as="geometry">
            <mxPoint x="524" y="-46" as="sourcePoint" />
            <mxPoint x="574" y="-96" as="targetPoint" />
          </mxGeometry>
        </mxCell>
        <mxCell id="XoC2ayWK2RqXfS1PPcWr-39" value="&lt;font color=&quot;#ff1212&quot; style=&quot;font-size: 12px;&quot;&gt;&lt;b&gt;FC=0.5&lt;/b&gt;&lt;/font&gt;" style="text;html=1;strokeColor=none;fillColor=none;align=center;verticalAlign=middle;whiteSpace=wrap;rounded=0;fontSize=16;" parent="1" vertex="1">
          <mxGeometry x="727" y="-207" width="60" height="30" as="geometry" />
        </mxCell>
        <mxCell id="XoC2ayWK2RqXfS1PPcWr-40" value="&lt;font color=&quot;#ff1212&quot; style=&quot;font-size: 12px;&quot;&gt;&lt;b&gt;FC=0&lt;/b&gt;&lt;/font&gt;" style="text;html=1;strokeColor=none;fillColor=none;align=center;verticalAlign=middle;whiteSpace=wrap;rounded=0;fontSize=16;" parent="1" vertex="1">
          <mxGeometry x="819" y="-207" width="60" height="30" as="geometry" />
        </mxCell>
        <mxCell id="XoC2ayWK2RqXfS1PPcWr-41" value="&lt;font style=&quot;font-size: 12px;&quot; color=&quot;#ff1212&quot;&gt;&lt;b&gt;FC=1&lt;/b&gt;&lt;/font&gt;" style="text;html=1;strokeColor=none;fillColor=none;align=center;verticalAlign=middle;whiteSpace=wrap;rounded=0;fontSize=16;" parent="1" vertex="1">
          <mxGeometry x="611" y="-368" width="60" height="30" as="geometry" />
        </mxCell>
        <mxCell id="XoC2ayWK2RqXfS1PPcWr-42" value="&lt;font color=&quot;#ff1212&quot; style=&quot;font-size: 12px;&quot;&gt;&lt;b&gt;FC=-1&lt;/b&gt;&lt;/font&gt;" style="text;html=1;strokeColor=none;fillColor=none;align=center;verticalAlign=middle;whiteSpace=wrap;rounded=0;fontSize=16;" parent="1" vertex="1">
          <mxGeometry x="456" y="-368" width="60" height="30" as="geometry" />
        </mxCell>
        <mxCell id="XoC2ayWK2RqXfS1PPcWr-43" value="&lt;font color=&quot;#ff1212&quot; style=&quot;font-size: 12px;&quot;&gt;&lt;b&gt;FC=-1&lt;/b&gt;&lt;/font&gt;" style="text;html=1;strokeColor=none;fillColor=none;align=center;verticalAlign=middle;whiteSpace=wrap;rounded=0;fontSize=16;" parent="1" vertex="1">
          <mxGeometry x="298" y="-368" width="60" height="30" as="geometry" />
        </mxCell>
        <mxCell id="XoC2ayWK2RqXfS1PPcWr-44" value="&lt;font color=&quot;#ff1212&quot; style=&quot;font-size: 12px;&quot;&gt;&lt;b&gt;FC=1&lt;/b&gt;&lt;/font&gt;" style="text;html=1;strokeColor=none;fillColor=none;align=center;verticalAlign=middle;whiteSpace=wrap;rounded=0;fontSize=16;" parent="1" vertex="1">
          <mxGeometry x="153" y="-368" width="60" height="30" as="geometry" />
        </mxCell>
        <mxCell id="XoC2ayWK2RqXfS1PPcWr-46" value="&lt;b&gt;&lt;font style=&quot;font-size: 12px;&quot; color=&quot;#ff1212&quot;&gt;FC=0.5&lt;/font&gt;&lt;/b&gt;" style="text;html=1;strokeColor=none;fillColor=none;align=center;verticalAlign=middle;whiteSpace=wrap;rounded=0;fontSize=16;" parent="1" vertex="1">
          <mxGeometry x="93" y="-272" width="60" height="30" as="geometry" />
        </mxCell>
        <mxCell id="XoC2ayWK2RqXfS1PPcWr-47" value="&lt;b&gt;&lt;font color=&quot;#ff1212&quot; style=&quot;font-size: 12px;&quot;&gt;FC=-1&lt;/font&gt;&lt;/b&gt;" style="text;html=1;strokeColor=none;fillColor=none;align=center;verticalAlign=middle;whiteSpace=wrap;rounded=0;fontSize=16;" parent="1" vertex="1">
          <mxGeometry x="93" y="-209" width="60" height="30" as="geometry" />
        </mxCell>
        <mxCell id="XoC2ayWK2RqXfS1PPcWr-48" value="&lt;font color=&quot;#ff1212&quot; style=&quot;font-size: 12px;&quot;&gt;&lt;b&gt;FC=0.5&lt;/b&gt;&lt;/font&gt;" style="text;html=1;strokeColor=none;fillColor=none;align=center;verticalAlign=middle;whiteSpace=wrap;rounded=0;fontSize=16;" parent="1" vertex="1">
          <mxGeometry x="441" y="-91" width="60" height="30" as="geometry" />
        </mxCell>
        <mxCell id="XoC2ayWK2RqXfS1PPcWr-49" value="&lt;b&gt;&lt;font color=&quot;#ff1212&quot; style=&quot;font-size: 12px;&quot;&gt;FC=0.9&lt;/font&gt;&lt;/b&gt;" style="text;html=1;strokeColor=none;fillColor=none;align=center;verticalAlign=middle;whiteSpace=wrap;rounded=0;fontSize=16;" parent="1" vertex="1">
          <mxGeometry x="244" y="-271" width="60" height="30" as="geometry" />
        </mxCell>
        <mxCell id="XoC2ayWK2RqXfS1PPcWr-50" value="&lt;font color=&quot;#ff1212&quot; style=&quot;font-size: 12px;&quot;&gt;&lt;b&gt;FC=0.7&lt;/b&gt;&lt;/font&gt;" style="text;html=1;strokeColor=none;fillColor=none;align=center;verticalAlign=middle;whiteSpace=wrap;rounded=0;fontSize=16;" parent="1" vertex="1">
          <mxGeometry x="699" y="-91" width="60" height="30" as="geometry" />
        </mxCell>
        <mxCell id="XoC2ayWK2RqXfS1PPcWr-51" value="&lt;b&gt;&lt;font style=&quot;font-size: 12px;&quot; color=&quot;#ff1212&quot;&gt;FC=1&lt;/font&gt;&lt;/b&gt;" style="text;html=1;strokeColor=none;fillColor=none;align=center;verticalAlign=middle;whiteSpace=wrap;rounded=0;fontSize=16;" parent="1" vertex="1">
          <mxGeometry x="555" y="-263.5" width="60" height="30" as="geometry" />
        </mxCell>
        <mxCell id="XoC2ayWK2RqXfS1PPcWr-52" value="&lt;b&gt;&lt;font style=&quot;font-size: 12px;&quot; color=&quot;#ff1212&quot;&gt;FC=-0.5&lt;/font&gt;&lt;/b&gt;" style="text;html=1;strokeColor=none;fillColor=none;align=center;verticalAlign=middle;whiteSpace=wrap;rounded=0;fontSize=16;" parent="1" vertex="1">
          <mxGeometry x="97" y="-91" width="60" height="30" as="geometry" />
        </mxCell>
        <mxCell id="XoC2ayWK2RqXfS1PPcWr-53" value="&lt;b&gt;&lt;font style=&quot;font-size: 12px;&quot; color=&quot;#ff1212&quot;&gt;FC=0.5&lt;/font&gt;&lt;/b&gt;" style="text;html=1;strokeColor=none;fillColor=none;align=center;verticalAlign=middle;whiteSpace=wrap;rounded=0;fontSize=16;" parent="1" vertex="1">
          <mxGeometry x="403.5" y="-268" width="60" height="30" as="geometry" />
        </mxCell>
        <mxCell id="R1QLz7HnRVpBYojCcoZg-1" value="" style="verticalLabelPosition=bottom;verticalAlign=top;html=1;shape=mxgraph.basic.arc;startAngle=0.3;endAngle=0.7705747559124867;rotation=-195;" vertex="1" parent="1">
          <mxGeometry x="778.5" y="-127" width="44" height="41" as="geometry" />
        </mxCell>
        <mxCell id="R1QLz7HnRVpBYojCcoZg-2" value="" style="verticalLabelPosition=bottom;verticalAlign=top;html=1;shape=mxgraph.basic.arc;startAngle=0.3;endAngle=0.7705747559124867;rotation=-195;" vertex="1" parent="1">
          <mxGeometry x="179.5" y="-126" width="44" height="41" as="geometry" />
        </mxCell>
      </root>
    </mxGraphModel>
  </diagram>
</mxfile>
